<mxfile host="app.diagrams.net" modified="2023-04-03T20:45:58.598Z" agent="Mozilla/5.0 (Windows NT 10.0; Win64; x64) AppleWebKit/537.36 (KHTML, like Gecko) Chrome/111.0.0.0 Safari/537.36" etag="ZpLNkclLY5F6KBraslS4" version="21.1.4" type="device">
  <diagram id="wL3LMPrn0x1YvUbex-Wn" name="Page-1">
    <mxGraphModel dx="588" dy="1133" grid="1" gridSize="10" guides="1" tooltips="1" connect="1" arrows="1" fold="1" page="1" pageScale="1" pageWidth="850" pageHeight="1100" math="0" shadow="0">
      <root>
        <mxCell id="0" />
        <mxCell id="1" parent="0" />
        <mxCell id="sfqfh06wtn_Yg2nzBEz8-6" style="edgeStyle=orthogonalEdgeStyle;rounded=0;orthogonalLoop=1;jettySize=auto;html=1;entryX=0.5;entryY=0;entryDx=0;entryDy=0;" parent="1" source="sfqfh06wtn_Yg2nzBEz8-2" target="sfqfh06wtn_Yg2nzBEz8-3" edge="1">
          <mxGeometry relative="1" as="geometry" />
        </mxCell>
        <mxCell id="sfqfh06wtn_Yg2nzBEz8-2" value="PROJECT" style="rounded=1;whiteSpace=wrap;html=1;" parent="1" vertex="1">
          <mxGeometry x="365" y="60" width="120" height="60" as="geometry" />
        </mxCell>
        <mxCell id="sfqfh06wtn_Yg2nzBEz8-7" style="edgeStyle=orthogonalEdgeStyle;rounded=0;orthogonalLoop=1;jettySize=auto;html=1;entryX=0.5;entryY=0;entryDx=0;entryDy=0;" parent="1" source="sfqfh06wtn_Yg2nzBEz8-3" target="sfqfh06wtn_Yg2nzBEz8-4" edge="1">
          <mxGeometry relative="1" as="geometry" />
        </mxCell>
        <mxCell id="sfqfh06wtn_Yg2nzBEz8-3" value="Biology_project" style="rounded=1;whiteSpace=wrap;html=1;" parent="1" vertex="1">
          <mxGeometry x="365" y="200" width="120" height="60" as="geometry" />
        </mxCell>
        <mxCell id="sfqfh06wtn_Yg2nzBEz8-4" value="laserAttacks()&lt;br&gt;fadeIn()&lt;br&gt;fadeOut()&lt;br&gt;returnHighLightToNormal()&lt;br&gt;fixKeys()&lt;br&gt;boubleMobe()&lt;br&gt;inputPositions()&lt;br&gt;mapGenerating()&lt;br&gt;gravityFunc()&lt;br&gt;upgradePrint()&lt;br&gt;entetyRespawn()&lt;br&gt;levelUp()&lt;br&gt;hitBox()&lt;br&gt;hurt()&lt;br&gt;entityUpdate()&lt;br&gt;buttonHighLight()&lt;br&gt;enterEvent()&lt;br&gt;cooldownCheck()&lt;br&gt;keys()&lt;br&gt;onMenu()&lt;br&gt;printHearts()&lt;br&gt;onLevels()&lt;br&gt;" style="rounded=1;whiteSpace=wrap;html=1;" parent="1" vertex="1">
          <mxGeometry x="303" y="400" width="245" height="460" as="geometry" />
        </mxCell>
      </root>
    </mxGraphModel>
  </diagram>
</mxfile>
